<svg xmlns="http://www.w3.org/2000/svg" xmlns:xlink="http://www.w3.org/1999/xlink" version="1.1" width="256" height="256" viewBox="0 0 256 256" xml:space="preserve">

<defs>
</defs>
<g style="stroke: none; stroke-width: 0; stroke-dasharray: none; stroke-linecap: butt; stroke-linejoin: miter; stroke-miterlimit: 10; fill: none; fill-rule: nonzero; opacity: 1;" transform="translate(1.4065934065934016 1.4065934065934016) scale(2.81 2.81)" >
	<path d="M 67.541 90 H 22.459 C 10.055 90 0 79.945 0 67.541 l 0 -45.082 C 0 10.055 10.055 0 22.459 0 l 45.082 0 C 79.945 0 90 10.055 90 22.459 v 45.082 C 90 79.945 79.945 90 67.541 90 z" style="stroke: none; stroke-width: 1; stroke-dasharray: none; stroke-linecap: butt; stroke-linejoin: miter; stroke-miterlimit: 10; fill: rgb(255,61,19); fill-rule: nonzero; opacity: 1;" transform=" matrix(1 0 0 1 0 0) " stroke-linecap="round" />
	<path d="M 58.159 45.649 c 4.825 -0.012 8.748 3.888 8.764 8.713 v 6.924 c -0.012 4.825 -3.933 8.726 -8.758 8.713 c -0.002 0 -0.004 0 -0.006 0 H 45.27 c -3.779 0.006 -7.136 -2.412 -8.329 -5.998 l -7.704 3.819 c -2.097 1.048 -4.647 0.206 -5.709 -1.884 c -0.297 -0.588 -0.451 -1.237 -0.452 -1.895 V 51.631 c 0.017 -2.352 1.938 -4.245 4.291 -4.227 c 0.653 0.005 1.297 0.16 1.881 0.453 l 7.643 3.847 c 1.175 -3.622 4.554 -6.071 8.362 -6.06 h 12.889 L 58.159 45.649 z M 58.103 50.109 H 45.404 c -2.386 -0.007 -4.336 1.902 -4.382 4.287 v 6.779 c 0.009 2.384 1.926 4.32 4.309 4.354 h 12.705 c 2.384 0.007 4.333 -1.898 4.382 -4.281 v -6.762 c -0.009 -2.386 -1.929 -4.323 -4.315 -4.354 V 50.109 z M 28.775 52.813 c -0.623 0 -1.136 0.492 -1.16 1.115 v 7.805 c 0.007 0.643 0.534 1.16 1.177 1.153 c 0.172 -0.002 0.341 -0.041 0.495 -0.116 l 0 0 l 7.197 -3.629 v -2.587 l -7.214 -3.601 C 29.118 52.869 28.948 52.822 28.775 52.813 z M 39.473 20 c 4.292 -0.003 8.251 2.312 10.352 6.054 c 4.102 -3.795 10.503 -3.547 14.299 0.555 c 3.795 4.102 3.547 10.503 -0.555 14.298 c -4.102 3.795 -10.503 3.547 -14.299 -0.555 c -0.27 -0.291 -0.522 -0.598 -0.755 -0.919 c -4.193 5.006 -11.651 5.665 -16.657 1.471 s -5.665 -11.651 -1.471 -16.657 c 2.251 -2.688 5.58 -4.238 9.086 -4.231 L 39.473 20 z M 39.473 24.739 c -3.892 0.022 -7.029 3.194 -7.007 7.085 c 0.022 3.892 3.194 7.029 7.085 7.007 c 3.876 -0.021 7.007 -3.17 7.007 -7.046 c -0.025 -3.893 -3.192 -7.033 -7.086 -7.024 L 39.473 24.739 z M 56.754 28.083 c -2.98 -0.009 -5.404 2.399 -5.413 5.38 c 0 0 0 0 0 0 l 0 0 c 0.009 2.98 2.433 5.389 5.413 5.38 c 0 0 0 0 0 0 l 0 0 c 2.98 0.009 5.404 -2.399 5.413 -5.38 c 0 0 0 0 0 0 l 0 0 C 62.158 30.483 59.735 28.074 56.754 28.083 C 56.754 28.083 56.754 28.083 56.754 28.083 z" style="stroke: none; stroke-width: 1; stroke-dasharray: none; stroke-linecap: butt; stroke-linejoin: miter; stroke-miterlimit: 10; fill: rgb(255,255,255); fill-rule: nonzero; opacity: 1;" transform=" matrix(1 0 0 1 0 0) " stroke-linecap="round" />
</g>
</svg>